<svg width="20" height="20" viewBox="0 0 20 20" fill="none" xmlns="http://www.w3.org/2000/svg">
<rect width="20" height="20" rx="6" fill="#5431C8"/>
<path fill-rule="evenodd" clip-rule="evenodd" d="M5.665 1.5C3.135 1.5 1.5 3.233 1.5 5.916V14.084C1.5 16.767 3.135 18.5 5.665 18.5H14.333C16.864 18.5 18.5 16.767 18.5 14.084V5.916C18.5 3.233 16.864 1.5 14.334 1.5H5.665ZM14.333 20H5.665C2.276 20 0 17.622 0 14.084V5.916C0 2.378 2.276 0 5.665 0H14.334C17.723 0 20 2.378 20 5.916V14.084C20 17.622 17.723 20 14.333 20Z" fill="white"/>
<path fill-rule="evenodd" clip-rule="evenodd" d="M8.8132 13.1232C8.6222 13.1232 8.4292 13.0502 8.2832 12.9032L5.9092 10.5302C5.6162 10.2372 5.6162 9.76319 5.9092 9.47019C6.2022 9.17719 6.6762 9.17719 6.9692 9.47019L8.8132 11.3122L13.0292 7.09719C13.3222 6.80419 13.7962 6.80419 14.0892 7.09719C14.3822 7.39019 14.3822 7.86419 14.0892 8.15719L9.3432 12.9032C9.1972 13.0502 9.0052 13.1232 8.8132 13.1232Z" fill="white"/>
</svg>
