<svg width="22" height="22" viewBox="0 0 22 22" fill="none" xmlns="http://www.w3.org/2000/svg">
<path d="M18.3611 3.54506C17.3983 2.57567 16.2523 1.80727 14.9898 1.28452C13.7272 0.761766 12.3732 0.49512 11.0065 0.500068C9.17957 0.501853 7.38503 0.983328 5.80279 1.89627C4.22055 2.80922 2.9061 4.1216 1.99106 5.70196C1.07602 7.28233 0.592536 9.07527 0.58899 10.9011C0.585457 12.727 1.06201 14.5217 1.97091 16.1056L0.5 21.5L6.01593 20.0563C7.53905 20.9031 9.25049 21.3544 10.9934 21.3688C13.7641 21.3689 16.4226 20.2752 18.3903 18.3259C20.358 16.3767 21.4756 13.7295 21.4999 10.9607C21.4907 9.579 21.2086 8.21275 20.67 6.94023C20.1315 5.6677 19.3467 4.51394 18.3611 3.54506ZM11.0065 19.5706C9.4538 19.5717 7.92944 19.1546 6.59379 18.3631L6.27859 18.1663L3.00843 19.0325L3.87522 15.8431L3.66509 15.515C2.54779 13.7126 2.1308 11.5631 2.49311 9.47387C2.85543 7.38471 3.9719 5.50088 5.63099 4.17929C7.29011 2.85769 9.37657 2.19012 11.4952 2.30303C13.6139 2.41593 15.6176 3.30148 17.1266 4.79193C18.7761 6.40392 19.7204 8.60277 19.7532 10.9082C19.7325 13.2128 18.8017 15.4159 17.1636 17.0383C15.5257 18.6605 13.3127 19.5708 11.0065 19.5706ZM15.7476 13.0869C15.4849 12.9557 14.211 12.3257 13.9746 12.2469C13.7382 12.1682 13.5544 12.1157 13.3836 12.3782C13.1267 12.73 12.8504 13.0674 12.5562 13.3888C12.4118 13.5725 12.2542 13.5857 11.9915 13.3888C10.4939 12.7974 9.24629 11.708 8.4587 10.3044C8.1829 9.84505 8.72136 9.87129 9.22042 8.88692C9.25732 8.81592 9.2765 8.73717 9.2765 8.65724C9.2765 8.57731 9.25732 8.49856 9.22042 8.42755C9.22042 8.29629 8.62943 7.01004 8.4193 6.49817C8.20917 5.9863 7.99903 6.06505 7.8283 6.05192H7.31611C7.1834 6.05396 7.05266 6.08429 6.93262 6.14087C6.81258 6.19745 6.70602 6.279 6.62005 6.38005C6.32537 6.66641 6.09553 7.01256 5.94601 7.39518C5.79649 7.7778 5.73077 8.18801 5.75326 8.59818C5.83561 9.58005 6.20561 10.5159 6.81705 11.2888C7.93626 12.9633 9.47008 14.3197 11.2692 15.2263C12.2128 15.7767 13.3094 16.0069 14.3949 15.8825C14.7563 15.8109 15.0987 15.664 15.3996 15.4514C15.7006 15.2389 15.9534 14.9654 16.1416 14.6488C16.316 14.2624 16.3709 13.8328 16.2992 13.415C16.181 13.2838 16.0103 13.2182 15.7476 13.0869Z" fill="#828288"/>
</svg>
