<svg width="24" height="24" viewBox="0 0 24 24" fill="none" xmlns="http://www.w3.org/2000/svg">
<path fill-rule="evenodd" clip-rule="evenodd" d="M5.29232 2.0835C2.08398 2.0835 2.08398 2.32616 2.08398 5.29183V5.321C2.08398 6.6125 2.08398 7.54583 2.40015 7.94016C2.70932 8.32283 3.62748 8.50016 5.29232 8.50016C6.95715 8.50016 7.87532 8.32166 8.18448 7.939C8.50065 7.54583 8.50065 6.6125 8.50065 5.31983C8.50065 2.32616 8.50065 2.0835 5.29232 2.0835ZM5.29232 10.2502C3.32532 10.2502 1.84948 10.0437 1.03865 9.03683C0.333984 8.163 0.333984 6.97066 0.333984 5.321L1.20898 5.29183H0.333984C0.333984 1.9435 0.545151 0.333496 5.29232 0.333496C10.0395 0.333496 10.2507 1.9435 10.2507 5.29183C10.2507 6.9695 10.2507 8.163 9.54598 9.03683C8.73515 10.0437 7.25932 10.2502 5.29232 10.2502Z" fill="#787776"/>
<path fill-rule="evenodd" clip-rule="evenodd" d="M18.1263 2.0835C14.918 2.0835 14.918 2.32616 14.918 5.29183V5.321C14.918 6.6125 14.918 7.54583 15.2341 7.94016C15.5433 8.32283 16.4615 8.50016 18.1263 8.50016C19.7911 8.50016 20.7093 8.32166 21.0185 7.939C21.3346 7.54583 21.3346 6.6125 21.3346 5.31983C21.3346 2.32616 21.3346 2.0835 18.1263 2.0835ZM18.1263 10.2502C16.1593 10.2502 14.6835 10.0437 13.8726 9.03683C13.168 8.163 13.168 6.97066 13.168 5.321L14.043 5.29183H13.168C13.168 1.9435 13.3791 0.333496 18.1263 0.333496C22.8735 0.333496 23.0846 1.9435 23.0846 5.29183C23.0846 6.9695 23.0846 8.163 22.38 9.03683C21.5691 10.0437 20.0933 10.2502 18.1263 10.2502Z" fill="#787776"/>
<path fill-rule="evenodd" clip-rule="evenodd" d="M5.29232 14.917C2.08398 14.917 2.08398 15.1597 2.08398 18.1253V18.1545C2.08398 19.446 2.08398 20.3793 2.40015 20.7737C2.70932 21.1563 3.62748 21.3337 5.29232 21.3337C6.95715 21.3337 7.87532 21.1552 8.18448 20.7725C8.50065 20.3793 8.50065 19.446 8.50065 18.1533C8.50065 15.1597 8.50065 14.917 5.29232 14.917ZM5.29232 23.0837C3.32532 23.0837 1.84948 22.8772 1.03865 21.8703C0.333984 20.9965 0.333984 19.8042 0.333984 18.1545L1.20898 18.1253H0.333984C0.333984 14.777 0.545151 13.167 5.29232 13.167C10.0395 13.167 10.2507 14.777 10.2507 18.1253C10.2507 19.803 10.2507 20.9965 9.54598 21.8703C8.73515 22.8772 7.25932 23.0837 5.29232 23.0837Z" fill="#787776"/>
<path fill-rule="evenodd" clip-rule="evenodd" d="M18.1263 14.917C14.918 14.917 14.918 15.1597 14.918 18.1253V18.1545C14.918 19.446 14.918 20.3793 15.2341 20.7737C15.5433 21.1563 16.4615 21.3337 18.1263 21.3337C19.7911 21.3337 20.7093 21.1552 21.0185 20.7725C21.3346 20.3793 21.3346 19.446 21.3346 18.1533C21.3346 15.1597 21.3346 14.917 18.1263 14.917ZM18.1263 23.0837C16.1593 23.0837 14.6835 22.8772 13.8726 21.8703C13.168 20.9965 13.168 19.8042 13.168 18.1545L14.043 18.1253H13.168C13.168 14.777 13.3791 13.167 18.1263 13.167C22.8735 13.167 23.0846 14.777 23.0846 18.1253C23.0846 19.803 23.0846 20.9965 22.38 21.8703C21.5691 22.8772 20.0933 23.0837 18.1263 23.0837Z" fill="#787776"/>
</svg>
