<svg width="14" height="14" viewBox="0 0 14 14" fill="none" xmlns="http://www.w3.org/2000/svg">
<path d="M3.60082 4.19981C3.60082 4.53118 3.86945 4.79981 4.20082 4.79981C4.53219 4.79981 4.80082 4.53118 4.80082 4.19981H3.60082ZM4.20082 4.01341H4.80083L4.80082 4.01008L4.20082 4.01341ZM6.78566 1.39981V0.799805L6.7823 0.799821L6.78566 1.39981ZM10.016 1.39981L10.0193 0.799813H10.016V1.39981ZM12.6008 4.01341L12.0008 4.01008V4.01341H12.6008ZM12.6008 7.18621H12.0008L12.0009 7.18957L12.6008 7.18621ZM10.016 9.79981V10.3998H10.0193L10.016 9.79981ZM9.80078 9.19981C9.46942 9.19981 9.20078 9.46845 9.20078 9.79981C9.20078 10.1312 9.46942 10.3998 9.80078 10.3998V9.19981ZM4.20082 4.79981C4.53219 4.79981 4.80082 4.53118 4.80082 4.19981C4.80082 3.86844 4.53219 3.59981 4.20082 3.59981V4.79981ZM3.98562 4.19981V3.5998L3.98231 3.59982L3.98562 4.19981ZM1.40082 6.81341H2.00083L2.00081 6.81005L1.40082 6.81341ZM1.40082 9.98701L2.00082 9.99013V9.98701H1.40082ZM3.98562 12.5998L3.98231 13.1998H3.98562V12.5998ZM7.21598 12.5998V13.1998H7.21934L7.21598 12.5998ZM9.80078 9.98621H9.20078L9.20086 9.98957L9.80078 9.98621ZM10.4008 9.79981C10.4008 9.46845 10.1322 9.19981 9.80078 9.19981C9.46942 9.19981 9.20078 9.46845 9.20078 9.79981H10.4008ZM4.20082 3.59981C3.86945 3.59981 3.60082 3.86844 3.60082 4.19981C3.60082 4.53118 3.86945 4.79981 4.20082 4.79981V3.59981ZM7.21606 4.19981L7.21934 3.59981H7.21606V4.19981ZM9.80086 6.81341L9.20086 6.81005V6.81341H9.80086ZM9.20078 9.79981C9.20078 10.1312 9.46942 10.3998 9.80078 10.3998C10.1321 10.3998 10.4008 10.1312 10.4008 9.79981H9.20078ZM4.80082 4.19981L4.80083 4.01341H3.60082V4.19981H4.80082ZM4.80082 4.01008C4.79787 3.47985 5.00566 2.97018 5.37854 2.59318L4.52531 1.74936C3.92866 2.35266 3.59612 3.16826 3.60083 4.01675L4.80082 4.01008ZM5.37854 2.59318C5.75134 2.21618 6.2587 2.00273 6.78894 1.9998L6.7823 0.799821C5.93382 0.804509 5.12198 1.14607 4.52531 1.74936L5.37854 2.59318ZM6.78566 1.99981H10.016V0.799813L6.78566 0.799805V1.99981ZM10.0127 1.9998C10.5429 2.00273 11.0503 2.21618 11.4231 2.59318L12.2763 1.74936C11.6797 1.14607 10.8678 0.804501 10.0193 0.799813L10.0127 1.9998ZM11.4231 2.59318C11.796 2.97018 12.0037 3.47985 12.0008 4.01008L13.2008 4.01675C13.2055 3.16826 12.8729 2.35266 12.2763 1.74936L11.4231 2.59318ZM12.0008 4.01341V7.18621H13.2008V4.01341H12.0008ZM12.0009 7.18957C12.0037 7.71973 11.796 8.22941 11.4231 8.60645L12.2763 9.45029C12.8729 8.84693 13.2055 8.03133 13.2008 7.18285L12.0009 7.18957ZM11.4231 8.60645C11.0503 8.98341 10.5429 9.19685 10.0127 9.19981L10.0193 10.3998C10.8678 10.3951 11.6797 10.0536 12.2763 9.45029L11.4231 8.60645ZM10.016 9.19981H9.80078V10.3998H10.016V9.19981ZM4.20082 3.59981L3.98562 3.5998V4.79981H4.20082V3.59981ZM3.98231 3.59982C3.13382 3.60451 2.32195 3.94607 1.72531 4.54936L2.57853 5.39318C2.95137 5.01618 3.45871 4.80273 3.98893 4.7998L3.98231 3.59982ZM1.72531 4.54936C1.12866 5.15266 0.796119 5.96829 0.800831 6.81677L2.00081 6.81005C1.99787 6.27989 2.20568 5.77021 2.57853 5.39318L1.72531 4.54936ZM0.800823 6.81341V9.98701H2.00082L2.00083 6.81341H0.800823ZM0.800831 9.98389C0.791559 11.7504 2.21581 13.1901 3.98231 13.1998L3.98894 11.9998C2.88505 11.9937 1.99503 11.0941 2.00082 9.99013L0.800831 9.98389ZM3.98562 13.1998H7.21598V11.9998H3.98562V13.1998ZM7.21934 13.1998C8.06782 13.1951 8.87966 12.8536 9.4763 12.2503L8.6231 11.4065C8.2503 11.7834 7.74294 11.9969 7.2127 11.9998L7.21934 13.1998ZM9.4763 12.2503C10.0729 11.6469 10.4055 10.8313 10.4008 9.98285L9.20086 9.98957C9.20374 10.5197 8.99598 11.0294 8.6231 11.4065L9.4763 12.2503ZM10.4008 9.98621V9.79981H9.20078V9.98621H10.4008ZM4.20082 4.79981H7.21606V3.59981H4.20082V4.79981ZM7.2127 4.7998C7.74294 4.80273 8.2503 5.01618 8.6231 5.39318L9.4763 4.54936C8.87966 3.94607 8.06782 3.6045 7.21934 3.59981L7.2127 4.7998ZM8.6231 5.39318C8.99598 5.77021 9.20374 6.27989 9.20086 6.81005L10.4008 6.81677C10.4055 5.96829 10.0729 5.15266 9.4763 4.54936L8.6231 5.39318ZM9.20086 6.81341L9.20078 9.79981H10.4008L10.4009 6.81341H9.20086Z" fill="#535252"/>
</svg>
