<svg width="19" height="20" viewBox="0 0 19 20" fill="none" xmlns="http://www.w3.org/2000/svg">
<path fill-rule="evenodd" clip-rule="evenodd" d="M9.24733 20.0001C7.89233 20.0001 6.57133 19.9852 5.26433 19.9581C3.59233 19.9251 2.43533 18.8411 2.24633 17.1291C1.93133 14.2891 1.39233 7.59515 1.38733 7.52815C1.35333 7.11515 1.66133 6.75315 2.07433 6.72015C2.48133 6.70915 2.84933 6.99515 2.88233 7.40715C2.88733 7.47515 3.42533 14.1461 3.73733 16.9641C3.84433 17.9371 4.36933 18.4391 5.29533 18.4581C7.79533 18.5112 10.3463 18.5141 13.0963 18.4641C14.0803 18.4451 14.6123 17.9531 14.7223 16.9571C15.0323 14.1631 15.5723 7.47515 15.5783 7.40715C15.6113 6.99515 15.9763 6.70715 16.3853 6.72015C16.7983 6.75415 17.1063 7.11515 17.0733 7.52815C17.0673 7.59615 16.5253 14.3071 16.2133 17.1221C16.0193 18.8691 14.8653 19.9321 13.1233 19.9641C11.7903 19.9871 10.5043 20.0001 9.24733 20.0001Z" fill="#9C000C"/>
<path fill-rule="evenodd" clip-rule="evenodd" d="M17.708 4.98926H0.75C0.336 4.98926 0 4.65326 0 4.23926C0 3.82526 0.336 3.48926 0.75 3.48926H17.708C18.122 3.48926 18.458 3.82526 18.458 4.23926C18.458 4.65326 18.122 4.98926 17.708 4.98926Z" fill="#9C000C"/>
<path fill-rule="evenodd" clip-rule="evenodd" d="M14.4406 4.98949C13.3026 4.98949 12.3146 4.17849 12.0906 3.06249L11.8476 1.84649C11.7966 1.66149 11.5856 1.50049 11.3456 1.50049H7.11258C6.87258 1.50049 6.66158 1.66149 6.60058 1.89249L6.36758 3.06249C6.14458 4.17849 5.15558 4.98949 4.01758 4.98949C3.60358 4.98949 3.26758 4.65349 3.26758 4.23949C3.26758 3.82549 3.60358 3.48949 4.01758 3.48949C4.44358 3.48949 4.81358 3.18549 4.89758 2.76749L5.14058 1.55149C5.38758 0.619488 6.19458 0.000488281 7.11258 0.000488281H11.3456C12.2636 0.000488281 13.0706 0.619488 13.3076 1.50649L13.5616 2.76749C13.6446 3.18549 14.0146 3.48949 14.4406 3.48949C14.8546 3.48949 15.1906 3.82549 15.1906 4.23949C15.1906 4.65349 14.8546 4.98949 14.4406 4.98949Z" fill="#9C000C"/>
</svg>
